<svg version="1.0" width="40" height="40" viewBox="0 0 500.000000 500.000000" preserveAspectRatio="xMidYMid meet" xmlns="http://www.w3.org/2000/svg">
  <g transform="translate(0.000000,500.000000) scale(0.100000,-0.100000)" fill="currentColor" stroke="none">
    <path d="M2356 4655 c-46 -16 -99 -65 -121 -112 -20 -41 -22 -126 -6 -175 13 -40 74 -102 114 -117 37 -14 135 -14 178 0 19 7 49 23 67 36 101 75 101 260 0 336 -61 46 -157 59 -232 32z m144 -102 c82 -74 42 -228 -59 -228 -50 0 -87 33 -102 88 -32 120 77 215 161 140z"/>
    <path d="M2846 4623 c-29 -98 -96 -375 -92 -382 3 -5 22 -12 42 -15 19 -4 41 -9 48 -12 10 -4 19 17 31 68 10 40 21 77 25 81 6 7 94 -10 147 -28 8 -3 6 -25 -8 -81 -11 -42 -17 -80 -12 -84 12 -11 93 -29 97 -21 2 3 25 89 51 191 26 101 49 189 51 195 6 16 -97 39 -106 24 -4 -6 -13 -35 -19 -65 -7 -29 -17 -56 -22 -60 -6 -3 -41 2 -80 11 -77 19 -77 19 -54 105 19 71 20 67 -14 73 -16 3 -40 9 -54 12 -19 5 -26 2 -31 -12z"/>
    <path d="M1972 4604 c-70 -18 -100 -35 -144 -79 -47 -47 -61 -91 -56 -166 5 -74 44 -134 108 -167 37 -20 56 -23 111 -19 68 4 179 46 179 67 0 12 -28 70 -34 70 -2 0 -25 -10 -51 -21 -94 -42 -184 -4 -200 85 -14 74 42 133 139 145 28 3 50 9 49 14 -2 4 -3 25 -3 47 0 46 -9 48 -98 24z"/>
    <path d="M3412 4387 c-146 -53 -191 -251 -80 -354 38 -36 129 -73 178 -73 192 1 285 252 138 375 -71 60 -159 79 -236 52z m171 -118 c42 -45 34 -115 -20 -171 -40 -42 -74 -52 -117 -34 -50 21 -74 71 -58 124 15 51 47 91 86 108 41 18 75 10 109 -27z"/>
    <path d="M1388 4354 l-48 -24 35 -63 c20 -34 63 -115 98 -179 34 -65 66 -118 71 -118 6 0 240 124 254 135 1 1 -8 20 -20 43 l-23 41 -81 -44 -80 -44 -67 122 c-92 170 -82 161 -139 131z"/>
    <path d="M1034 4088 c-30 -28 -54 -55 -54 -60 0 -9 169 -379 176 -388 3 -2 24 15 47 38 l42 42 -25 45 -24 44 27 29 c51 53 69 58 119 28 l44 -26 43 44 42 43 -191 106 -192 106 -54 -51z m112 -99 c29 -16 56 -35 60 -40 7 -12 -34 -59 -51 -59 -6 0 -25 29 -43 65 -17 36 -29 65 -26 65 4 0 31 -14 60 -31z"/>
    <path d="M3787 3972 l-147 -147 105 -105 105 -104 30 29 c16 16 30 34 30 40 0 6 -27 37 -60 70 l-60 60 112 112 113 113 -40 40 -40 40 -148 -148z"/>
    <path d="M2446 3796 c-22 -8 -47 -23 -56 -33 -207 -224 -382 -429 -480 -558 -234 -308 -366 -563 -415 -799 -21 -104 -19 -288 4 -401 78 -379 370 -680 756 -781 86 -23 121 -26 245 -26 124 0 159 3 245 26 584 152 908 737 724 1306 -67 208 -280 555 -512 835 -136 164 -361 414 -382 423 -42 19 -89 22 -129 8z m201 -244 c409 -462 617 -774 719 -1078 95 -283 37 -582 -160 -830 -111 -140 -268 -244 -451 -300 -83 -26 -103 -28 -255 -28 -152 0 -172 2 -255 28 -183 56 -340 160 -452 301 -211 265 -260 589 -138 905 115 299 301 565 718 1027 78 86 108 112 127 113 20 0 51 -30 147 -138z"/>
    <path d="M1952 2689 c-77 -39 -145 -148 -179 -284 -26 -106 -23 -297 5 -398 54 -191 142 -287 262 -287 120 0 213 102 260 283 67 263 -3 576 -151 674 -57 37 -138 42 -197 12z m142 -113 c74 -56 119 -194 119 -361 1 -164 -42 -299 -113 -359 -64 -53 -134 -17 -184 95 -74 163 -69 405 11 552 52 94 108 119 167 73z"/>
    <path d="M2461 2693 c-150 -74 -150 -380 1 -459 44 -23 118 -18 160 11 77 52 117 196 84 308 -37 127 -145 189 -245 140z m109 -115 c43 -47 51 -132 18 -198 -20 -38 -28 -45 -53 -45 -43 0 -75 51 -75 121 0 115 57 178 110 122z"/>
    <path d="M2947 2678 c-13 -18 -110 -187 -216 -375 -105 -188 -204 -365 -221 -393 -35 -60 -38 -90 -10 -115 39 -35 68 -12 133 105 33 58 140 247 238 421 98 174 179 325 179 337 0 56 -66 69 -103 20z"/>
    <path d="M2940 2229 c-35 -14 -78 -57 -103 -104 -32 -58 -32 -212 0 -271 84 -157 260 -145 323 22 73 196 -63 415 -220 353z m94 -129 c58 -69 43 -201 -28 -244 -14 -9 -22 -5 -46 21 -32 35 -46 100 -36 158 7 38 50 95 71 95 7 0 25 -14 39 -30z"/>
    <path d="M797 3561 c-13 -16 -47 -74 -76 -130 -299 -582 -305 -1237 -17 -1826 129 -262 314 -493 541 -672 81 -65 112 -75 139 -47 36 35 21 59 -98 158 -662 555 -870 1481 -506 2254 27 56 65 129 84 161 42 68 45 94 14 115 -33 23 -53 20 -81 -13z"/>
    <path d="M4122 3574 c-32 -22 -28 -45 23 -133 116 -202 189 -407 231 -656 26 -152 24 -434 -4 -595 -81 -456 -307 -852 -656 -1144 -121 -101 -136 -125 -100 -160 27 -28 58 -18 141 48 120 95 249 229 345 357 102 137 143 204 208 341 273 576 262 1228 -31 1799 -79 154 -106 179 -157 143z"/>
    <path d="M3091 859 c-74 -27 -136 -51 -137 -52 -3 -3 132 -377 139 -384 5 -5 110 30 265 88 22 8 22 10 7 46 -9 20 -17 38 -19 40 -2 2 -41 -10 -87 -26 -46 -16 -86 -28 -90 -25 -4 2 -12 18 -18 34 -8 23 -7 32 2 35 76 27 133 49 140 54 6 6 -8 67 -19 80 -2 2 -37 -9 -79 -24 -79 -29 -92 -27 -97 14 -3 20 6 26 79 53 l81 29 -15 45 c-8 24 -16 44 -16 43 -1 0 -62 -23 -136 -50z"/>
    <path d="M1707 712 c-37 -103 -67 -190 -67 -194 0 -5 85 -38 100 -38 3 0 17 31 30 70 13 39 27 70 30 70 4 0 40 -11 80 -25 40 -14 74 -24 75 -22 9 11 24 71 20 77 -3 5 -36 18 -73 31 -37 12 -69 23 -70 25 -5 3 18 74 23 74 2 0 40 -13 83 -29 l80 -30 17 41 c9 22 14 42 13 44 -6 6 -252 94 -262 94 -6 0 -41 -84 -79 -188z"/>
    <path d="M2140 774 c-1 -5 -11 -97 -24 -204 -13 -107 -22 -196 -21 -197 0 -1 26 -5 57 -9 l55 -6 8 76 c6 70 9 76 29 76 39 0 57 -23 72 -95 8 -38 16 -70 17 -71 1 0 26 -4 56 -7 l53 -6 -7 47 c-10 75 -24 120 -43 138 -14 15 -15 18 -2 22 8 3 27 18 42 33 22 21 28 37 28 69 0 54 -21 84 -78 108 -50 22 -242 42 -242 26z m188 -100 c46 -32 16 -84 -48 -84 -21 0 -41 3 -43 8 -2 4 -2 26 1 50 4 40 6 42 36 42 17 0 42 -7 54 -16z"/>
    <path d="M2681 764 c-57 -7 -106 -16 -109 -18 -2 -3 6 -96 19 -207 l23 -201 65 6 c37 4 105 12 152 17 l87 11 -5 42 c-3 22 -7 43 -9 45 -2 2 -42 -1 -91 -7 -48 -6 -91 -8 -95 -6 -5 3 -8 20 -8 38 l0 34 68 6 c99 10 98 10 94 57 l-4 40 -90 -7 -89 -7 3 34 3 34 88 9 c83 9 88 10 83 30 -3 12 -6 31 -6 44 0 26 -17 27 -179 6z"/>
  </g>
</svg>
