<?xml version="1.0" standalone="no"?>
<!DOCTYPE svg PUBLIC "-//W3C//DTD SVG 20010904//EN"
 "http://www.w3.org/TR/2001/REC-SVG-20010904/DTD/svg10.dtd">
<svg version="1.0" xmlns="http://www.w3.org/2000/svg"
 width="700.000000pt" height="700.000000pt" viewBox="0 0 700.000000 700.000000"
 preserveAspectRatio="xMidYMid meet">
<metadata>
Created by potrace 1.14, written by Peter Selinger 2001-2017
</metadata>
<g transform="translate(0.000000,700.000000) scale(0.100000,-0.100000)"
fill="#000000" stroke="none">
<path d="M1167 6154 c-1 -1 -90 -4 -197 -8 -107 -3 -215 -8 -240 -11 -177 -20
-200 -28 -200 -71 0 -40 29 -112 116 -289 71 -146 414 -898 414 -910 0 -2 16
-39 36 -82 20 -43 53 -116 74 -163 21 -47 47 -105 58 -130 28 -60 521 -1175
562 -1270 17 -41 42 -97 55 -125 13 -27 46 -104 75 -170 28 -66 60 -138 70
-160 30 -64 290 -661 446 -1022 79 -183 152 -352 162 -375 11 -24 48 -112 83
-196 35 -84 77 -169 92 -188 47 -56 100 -79 187 -78 103 0 184 40 286 141 90
89 109 131 129 283 4 25 8 340 11 700 3 545 1 660 -10 685 -8 17 -62 143 -121
280 -58 138 -115 268 -124 290 -10 22 -58 132 -106 245 -48 113 -95 223 -105
245 -10 22 -37 85 -60 140 -23 55 -48 114 -55 130 -8 17 -55 129 -105 250 -96
232 -99 240 -123 295 -39 88 -224 560 -278 709 -97 264 -129 374 -144 498 -4
26 -8 55 -10 63 -2 8 -7 35 -10 60 -9 70 -33 133 -61 163 -57 61 -117 69 -542
71 -200 0 -364 0 -365 0z"/>
<path d="M5507 6154 c-1 -1 -92 -4 -202 -8 -233 -6 -265 -10 -325 -39 -40 -20
-48 -29 -71 -87 -15 -36 -38 -126 -53 -200 -25 -126 -82 -315 -139 -461 -14
-35 -55 -143 -91 -239 -67 -175 -74 -194 -94 -240 -7 -14 -37 -90 -67 -169
-31 -80 -62 -159 -69 -175 -7 -17 -21 -49 -29 -71 -48 -117 -210 -514 -222
-540 -7 -16 -76 -178 -153 -360 -78 -181 -174 -406 -215 -500 -156 -359 -161
-398 -161 -1155 0 -687 6 -730 123 -849 105 -108 216 -160 323 -155 140 8 159
37 408 609 67 154 128 294 135 310 33 73 265 607 265 610 0 3 11 28 24 57 14
29 55 123 91 208 37 85 73 169 81 185 7 17 79 183 159 370 80 187 152 354 160
371 8 17 44 100 81 185 36 85 74 172 84 194 10 22 32 74 50 115 18 41 42 98
55 125 12 28 71 160 130 295 59 135 118 270 132 300 14 30 54 120 90 200 36
80 76 169 89 198 13 28 36 78 50 110 36 78 93 199 179 377 75 154 128 285 138
342 5 27 2 35 -16 44 -12 7 -23 11 -25 10 -1 -1 -26 0 -55 4 -103 12 -134 14
-317 21 -169 6 -539 11 -543 8z"/>
<path d="M3078 5645 c-1 -2 -46 -6 -98 -10 -52 -3 -108 -8 -125 -10 -152 -21
-196 -29 -232 -45 -24 -11 -43 -25 -43 -32 0 -16 64 -207 105 -313 48 -126
175 -449 197 -500 11 -27 24 -59 29 -70 73 -179 134 -326 144 -350 8 -16 31
-70 53 -120 77 -179 88 -202 158 -345 134 -272 214 -372 275 -339 30 15 82
103 176 291 45 92 83 170 83 172 0 2 19 44 41 93 191 409 489 1137 558 1363
32 104 33 118 8 135 -26 18 -105 43 -162 50 -38 5 -63 7 -196 22 -57 6 -965
14 -971 8z"/>
</g>
</svg>
