<svg version="1.0" width="31" height="31" viewBox="0 0 124.000000 96.000000" preserveAspectRatio="xMidYMid meet" xmlns="http://www.w3.org/2000/svg">
  <g transform="translate(0.000000,96.000000) scale(0.100000,-0.100000)" fill="#111111" stroke="none">
    <path d="M95 940 c-4 -6 3 -27 15 -47 17 -30 333 -745 373 -845 15 -37 58 -38 92 -3 24 23 25 29 25 158 l0 133 -55 128 c-95 219 -155 371 -161 407 -14 87 2 79 -149 79 -81 0 -136 -4 -140 -10z"/>
    <path d="M872 933 c-5 -10 -12 -36 -15 -59 -6 -34 -107 -288 -191 -478 -24 -54 -26 -70 -26 -193 0 -129 1 -135 25 -158 14 -15 35 -25 52 -25 25 1 31 8 55 63 15 34 91 208 168 387 77 179 156 356 175 393 20 38 33 73 30 78 -4 5 -64 9 -135 9 -113 0 -130 -2 -138 -17z"/>
    <path d="M 461.459 837.878 C 461.459 828.92 495.509 741.107 536.726 640.752 C 594.071 504.556 617.368 466.923 633.497 484.843 C 656.794 509.932 784.03 807.414 784.03 836.087 C 784.03 848.632 726.684 855.799 622.746 855.799 C 531.35 855.799 461.459 848.632 461.459 837.878 Z" style="" fill="#de4242"/>
  </g>
</svg>

