<svg version="1.0" width="31" height="31" viewBox="0 0 124.000000 96.000000" preserveAspectRatio="xMidYMid meet" xmlns="http://www.w3.org/2000/svg">
  <g transform="translate(0.000000,96.000000) scale(0.100000,-0.100000)" fill="#111111" stroke="none">
    <path d="M95 940 c-4 -6 3 -27 15 -47 17 -30 333 -745 373 -845 15 -37 58 -38 92 -3 24 23 25 29 25 158 l0 133 -55 128 c-95 219 -155 371 -161 407 -14 87 2 79 -149 79 -81 0 -136 -4 -140 -10z"/>
    <path d="M872 933 c-5 -10 -12 -36 -15 -59 -6 -34 -107 -288 -191 -478 -24 -54 -26 -70 -26 -193 0 -129 1 -135 25 -158 14 -15 35 -25 52 -25 25 1 31 8 55 63 15 34 91 208 168 387 77 179 156 356 175 393 20 38 33 73 30 78 -4 5 -64 9 -135 9 -113 0 -130 -2 -138 -17z"/>
    <path d="M 456.815 843.021 C 456.815 833.934 491.355 744.856 533.166 643.057 C 591.336 504.9 614.969 466.725 631.33 484.903 C 654.962 510.353 784.03 812.118 784.03 841.204 C 784.03 853.929 725.858 861.2 620.424 861.2 C 527.712 861.2 456.815 853.929 456.815 843.021 Z" style="transform-box: fill-box; transform-origin: 50% 50%;" fill="#de4242"/>
  </g>
</svg>
